PathFileType	4	(X/Y/Z)	C:\Users\Basilio\Documents\Thesis Gigler\squatting_fais\c3dfiles\039\SJ_pre5\markers_experimental.trc
DataRate	CameraRate	NumFrames	NumMarkers	Units	OrigDataRate	OrigDataStartFrame	OrigNumFrames
200.000000	200.000000	4	61	mm	200.000000	407	1630
Frame#	Time	FHD			LBHD			RBHD			C7			T10			CLAV			LSHO			LUUPA			LMUPA			LDUPA			LLEP			LMEP			LRAD			LUL			LRFIN			RSHO			RUPA1			RMUPA			RDUPA			RLEP			RMEP			RRAD			RUL			RUFIN			LASI			RASI			USACR			LSACR			RSACR			LTHI1			LTHI2			LTHI3			LTHI4			LLFC			LMFC			LTIB1			LTIB2			LTIB3			LTIB4			LLMAL			LMMAL			LHEE			LMT1			LMT2			LMT5			RTHI			RTHI2			RTHI3			RTHI4			RLFC			RMFC			RTIB1			RTIB2			RTIB3			RTIB4			RLMAL			RMMAL			RHEE			RMT1			RMT2			RMT5			
		X1	Y1	Z1	X2	Y2	Z2	X3	Y3	Z3	X4	Y4	Z4	X5	Y5	Z5	X6	Y6	Z6	X7	Y7	Z7	X8	Y8	Z8	X9	Y9	Z9	X10	Y10	Z10	X11	Y11	Z11	X12	Y12	Z12	X13	Y13	Z13	X14	Y14	Z14	X15	Y15	Z15	X16	Y16	Z16	X17	Y17	Z17	X18	Y18	Z18	X19	Y19	Z19	X20	Y20	Z20	X21	Y21	Z21	X22	Y22	Z22	X23	Y23	Z23	X24	Y24	Z24	X25	Y25	Z25	X26	Y26	Z26	X27	Y27	Z27	X28	Y28	Z28	X29	Y29	Z29	X30	Y30	Z30	X31	Y31	Z31	X32	Y32	Z32	X33	Y33	Z33	X34	Y34	Z34	X35	Y35	Z35	X36	Y36	Z36	X37	Y37	Z37	X38	Y38	Z38	X39	Y39	Z39	X40	Y40	Z40	X41	Y41	Z41	X42	Y42	Z42	X43	Y43	Z43	X44	Y44	Z44	X45	Y45	Z45	X46	Y46	Z46	X47	Y47	Z47	X48	Y48	Z48	X49	Y49	Z49	X50	Y50	Z50	X51	Y51	Z51	X52	Y52	Z52	X53	Y53	Z53	X54	Y54	Z54	X55	Y55	Z55	X56	Y56	Z56	X57	Y57	Z57	X58	Y58	Z58	X59	Y59	Z59	X60	Y60	Z60	X61	Y61	Z61	

408	2.035	21.87031936645508	1542.769165039063	-818.641052246094	-126.5101547241211	1498.679809570313	-945.710388183594	-107.6408615112305	1510.136596679688	-805.734313964844	-180.9970245361328	1403.472045898438	-882.6937255859377	-360.5747375488282	1143.977661132813	-887.9697875976565	-84.04390716552736	1273.517456054688	-879.692321777344	-99.81213378906253	1343.613159179688	-1065.5615234375	-216.1890563964844	1258.004028320313	-1243.03857421875	-198.9493713378907	1209.877807617188	-1241.372802734375	-238.1741943359376	1207.9599609375	-1287.349731445313	-263.3019714355469	1147.645874023438	-1316.848510742188	-344.0475769042969	1172.190795898438	-1286.944702148438	-392.2888488769532	943.431091308594	-1148.828735351563	-344.8705749511719	902.7473754882815	-1191.6240234375	-353.2310180664063	936.3352050781252	-1091.09814453125	-98.20042419433597	1330.167358398438	-690.4257812500001	-248.8354034423829	1279.655883789063	-536.9182739257814	-239.515609741211	1231.187255859375	-525.7950439453126	-287.0925598144532	1242.46728515625	-491.026092529297	-314.7300109863282	1182.43994140625	-460.6738891601564	-389.0181579589845	1210.243408203125	-503.048553466797	-385.6187438964845	990.8786621093752	-678.6807861328126	-382.6564941406251	939.6968383789065	-622.2826538085939	-338.0842895507813	955.7197265625002	-724.7517700195314	-305.6202087402344	912.9796142578127	-1007.988342285156	-308.5315246582032	899.0847167968752	-795.1925048828127	-447.6727600097657	1036.26708984375	-889.7380981445315	-468.6488647460939	1012.409912109375	-918.8879394531252	-471.9660949707032	1010.42919921875	-861.264343261719	-300.1177673339844	695.5858154296876	-1112.056518554688	-232.2954864501954	645.8233642578126	-1123.682495117188	-190.4710998535157	670.1364135742189	-1119.747924804688	-227.0467681884766	585.1173706054689	-1107.57080078125	-169.8983306884766	494.944793701172	-1111.36083984375	-129.5242156982422	474.9712524414064	-1002.921630859375	-132.0552368164063	348.4042663574219	-1093.69873046875	-208.8611145019532	327.0724487304688	-1133.3818359375	-173.8596649169922	312.8038330078126	-1114.406982421875	-194.6474761962891	237.7743835449219	-1073.590576171875	-308.8250122070313	97.94351959228518	-1100.080688476563	-285.9182128906251	91.69181060791017	-1015.006469726563	-381.1551208496094	41.69234466552735	-1057.47900390625	-146.8829040527344	54.86320877075197	-1071.949829101563	-158.5194854736328	55.28672790527345	-1113.308959960938	-207.4918212890626	31.86570549011231	-1159.571411132813	-294.9650878906251	706.4204711914064	-679.2940063476564	-233.4714965820313	683.6890869140626	-664.6192016601564	-206.5260772705079	702.5418090820314	-671.1932373046876	-212.9717254638672	601.0848999023439	-658.5703125000001	-177.5487670898438	481.1056213378907	-667.1376953125001	-135.4091186523438	473.8211975097657	-772.9865722656252	-178.2220458984375	278.8924255371094	-682.8836669921876	-275.6838073730469	234.0468292236329	-677.5130615234376	-232.2935180664063	215.778793334961	-678.5921020507814	-224.5205688476563	163.9857940673828	-707.9146728515626	-310.9771423339844	90.45689392089845	-690.4973144531251	-275.1463012695313	98.50667572021487	-774.1375122070315	-378.2467041015626	41.06845474243165	-742.4672241210939	-145.1751861572266	50.57096481323244	-717.7294921875001	-155.1661834716797	57.85463333129884	-672.8768920898439	-212.7367553710938	31.63916397094727	-626.2689208984376	
409	2.04	22.62049102783203	1541.318969726563	-818.512145996094	-125.2043228149414	1497.256103515625	-945.750427246094	-107.0276947021485	1509.09228515625	-805.6624755859377	-180.166976928711	1402.408325195313	-882.7912597656252	-360.3971252441407	1143.274780273438	-887.9505004882815	-83.13748931884767	1272.175415039063	-879.724304199219	-99.75667572021487	1342.9111328125	-1065.57958984375	-215.3111267089844	1257.10498046875	-1243.08203125	-198.3767852783204	1208.372192382813	-1241.417846679688	-237.7642517089844	1207.0361328125	-1287.34765625	-262.5776977539063	1146.630249023438	-1316.879272460938	-343.5765075683594	1171.400024414063	-1287.066284179688	-390.9439392089845	943.0003051757815	-1148.275756835938	-345.1568908691407	902.021911621094	-1191.661376953125	-353.2856750488282	935.6506958007815	-1091.062622070313	-97.42024230957034	1329.068969726563	-690.5705566406251	-248.1269531250001	1278.560791015625	-536.8668823242189	-238.775619506836	1230.324096679688	-525.7899780273439	-286.5440063476563	1241.728759765625	-490.987518310547	-313.8278198242188	1181.943359375	-460.6140441894532	-388.5061035156251	1209.79443359375	-502.9298400878907	-385.8634033203126	990.4163818359377	-678.7872314453126	-382.8229064941407	939.056579589844	-622.3901977539064	-338.3748474121094	954.872009277344	-724.5852050781251	-305.7868652343751	912.2216796875002	-1007.984680175781	-308.6010742187501	898.5872192382815	-795.0992431640627	-447.762420654297	1035.884521484375	-889.7410278320315	-468.7982482910157	1011.869262695313	-918.8809814453127	-472.0647277832032	1009.974792480469	-861.2258911132815	-300.1878662109376	695.2360839843751	-1112.062866210938	-232.2630157470704	645.5479125976564	-1123.686645507813	-190.4373626708985	669.9005126953126	-1119.68017578125	-226.4289703369141	584.4821166992189	-1107.431518554688	-169.6845092773438	494.8276672363282	-1111.304931640625	-129.3318023681641	474.894500732422	-1002.82275390625	-131.8980560302735	348.1930236816407	-1093.637451171875	-208.6275787353516	327.0170898437501	-1133.291870117188	-173.6481628417969	312.7127380371094	-1114.328247070313	-194.5663757324219	237.7322082519532	-1073.575805664063	-308.8063659667969	97.94972229003909	-1100.06396484375	-285.8460693359376	91.64251708984376	-1014.9931640625	-381.0321655273438	41.96897506713868	-1057.46142578125	-146.8766784667969	54.83968734741212	-1071.956176757813	-158.5706481933594	55.22973251342775	-1113.282958984375	-207.4666748046876	31.91787719726563	-1159.591186523438	-295.0826416015626	706.1245727539064	-679.3237915039064	-233.4985351562501	683.4553833007814	-664.6504516601564	-206.684555053711	702.3967285156251	-671.2417602539064	-212.9477691650391	600.9530639648439	-658.6178588867189	-177.3187866210938	481.0243530273439	-667.0778808593751	-135.2111358642578	473.7708129882814	-773.015319824219	-178.135726928711	278.8901977539063	-682.9177246093751	-275.5895385742188	233.9889526367188	-677.5367431640626	-232.207015991211	215.8679351806641	-678.5623779296876	-224.4781799316407	163.9609375	-707.9340209960939	-310.9356994628907	90.42787170410158	-690.5077514648439	-275.1017761230469	98.42272949218753	-774.1680297851565	-378.2658691406251	41.08330917358399	-742.5196533203126	-145.1618194580078	50.58975982666017	-717.7763061523439	-155.1182556152344	57.86608505249025	-672.8697509765626	-212.665756225586	31.60041046142579	-626.2637329101564	
410	2.045	23.70833778381348	1540.034423828125	-818.4959716796877	-124.2061386108399	1496.041137695313	-945.6743164062502	-105.9002532958985	1507.761352539063	-805.7127075195315	-179.3137817382813	1401.24755859375	-882.6068115234377	-359.8883056640626	1142.515869140625	-887.9072875976565	-82.6052703857422	1270.971557617188	-879.9300537109377	-98.6044845581055	1341.486328125	-1065.516967773438	-214.7578125000001	1255.908813476563	-1243.066528320313	-197.9586486816407	1207.531616210938	-1241.344970703125	-236.9805755615235	1206.174682617188	-1287.4658203125	-262.2667846679688	1145.769775390625	-1316.833740234375	-343.0404663085938	1170.578369140625	-1287.122924804688	-391.7518615722657	942.4362792968752	-1148.47314453125	-345.3581237792969	901.2092285156252	-1191.5634765625	-353.4765014648438	934.9636230468752	-1091.010009765625	-96.46746826171878	1327.618530273438	-690.8217163085939	-247.397933959961	1277.888671875	-536.8973388671876	-237.9595642089844	1229.5244140625	-526.0309448242189	-285.8627014160157	1240.737670898438	-490.9503173828126	-313.3398742675782	1180.940185546875	-460.5870971679689	-387.8892211914064	1208.9892578125	-502.9016113281251	-386.1192321777345	989.8635253906252	-678.7877197265626	-383.1323852539063	938.4932861328127	-622.4351196289064	-338.4910583496094	954.3937988281252	-724.5769653320314	-306.0933837890626	911.482604980469	-1008.007934570313	-308.5371704101563	897.6460571289065	-794.9856567382815	-447.757049560547	1034.889282226563	-889.6909790039065	-468.8523864746095	1011.336242675781	-918.9268188476565	-471.9919738769532	1009.538024902344	-861.0745239257815	-300.3607177734376	694.7776489257814	-1111.998657226563	-232.2409362792969	645.2290649414064	-1123.646118164063	-190.475082397461	669.7078247070314	-1119.644287109375	-226.3215789794922	584.2715454101564	-1107.44091796875	-169.4683685302735	494.6506652832032	-1111.236328125	-129.1248168945313	474.7865295410157	-1002.819091796875	-131.7572479248047	348.1072998046876	-1093.621337890625	-208.4707794189454	326.9569091796876	-1133.240234375	-173.4724731445313	312.6201782226563	-1114.338989257813	-194.4946899414063	237.6554107666016	-1073.524658203125	-308.7653198242188	97.934928894043	-1100.029541015625	-285.8445129394532	91.61974334716798	-1014.955993652344	-381.1556091308594	41.71424102783204	-1057.476928710938	-146.8248901367188	54.85494613647462	-1071.956909179688	-158.5658416748047	55.293025970459	-1113.280395507813	-207.4998779296876	31.86907958984376	-1159.569702148438	-295.1486206054688	705.8594970703126	-679.3824462890626	-233.5528106689454	683.2317504882814	-664.6348876953126	-206.8445434570313	702.2481079101564	-671.3089599609376	-212.9286651611329	600.8052978515626	-658.5569458007814	-177.1630401611328	480.8811035156251	-667.1370239257814	-135.1266174316407	473.7216186523439	-773.0020751953127	-178.0279083251953	278.8223266601563	-682.9851684570314	-275.5251464843751	234.0103454589844	-677.5442504882814	-232.0967712402344	215.7854461669922	-678.7202758789064	-224.4481201171876	164.0030212402344	-708.0136108398439	-310.9339294433594	90.42345428466798	-690.5449218750001	-275.1074829101563	98.40527343750003	-774.2011718750002	-378.2390441894532	41.06338500976563	-742.4951782226564	-145.1490478515625	50.49564361572267	-717.7767333984376	-155.1189880371094	57.89930725097658	-672.8424072265626	-212.7104492187501	31.62438774108887	-626.2858276367189	
411	2.05	24.82489967346192	1538.392211914063	-818.403991699219	-122.8455047607422	1494.520385742188	-945.8627929687502	-104.89599609375	1506.375610351563	-805.7088012695315	-178.275131225586	1400.060913085938	-882.6968383789065	-360.4262390136719	1141.708862304688	-888.3388671875002	-81.96794891357423	1269.9052734375	-879.900085449219	-97.7467956542969	1340.172607421875	-1065.57470703125	-214.1765899658204	1254.774291992188	-1243.02880859375	-197.4620666503907	1206.439819335938	-1241.3095703125	-236.4560546875001	1204.918823242188	-1287.420776367188	-261.9076843261719	1144.793090820313	-1316.864624023438	-342.5742187500001	1169.944580078125	-1287.092163085938	-391.9588623046876	941.757995605469	-1148.456420898438	-345.5377502441407	900.4219360351565	-1191.517822265625	-353.7337036132813	934.3590087890627	-1091.109497070313	-95.77301025390626	1326.294921875	-690.7751464843751	-246.3761291503907	1276.873657226563	-536.9901123046876	-237.3852081298829	1228.31103515625	-525.9958496093751	-285.1943664550782	1239.869995117188	-490.9231262207032	-312.8366394042969	1180.216796875	-460.6550292968751	-387.265838623047	1208.411987304688	-502.8946838378907	-386.3683471679689	989.339294433594	-678.8254394531251	-383.3330688476563	937.945495605469	-622.3823852539064	-338.5104980468751	954.0556640625002	-724.5972900390626	-306.2589416503907	910.8003540039065	-1008.038818359375	-308.8031616210938	896.7127685546877	-794.884216308594	-447.7351074218751	1034.392333984375	-889.7510986328127	-468.9160156250001	1010.974914550781	-918.8959960937502	-472.1255187988282	1009.066528320313	-861.0042114257815	-300.5147705078126	694.3388671875001	-1111.9853515625	-232.2319335937501	644.9628906250001	-1123.609375	-190.4894409179688	669.5386352539064	-1119.674682617188	-226.2251281738282	584.0174560546876	-1107.469970703125	-169.3128509521485	494.5762939453126	-1111.165283203125	-128.8885650634766	474.7369079589845	-1002.794494628906	-131.3509979248047	347.6659240722657	-1093.4443359375	-208.3000488281251	326.8447265625001	-1133.21044921875	-173.2952117919922	312.4647216796876	-1114.218017578125	-194.4380798339844	237.6035156250001	-1073.478637695313	-308.7524414062501	97.92205810546878	-1100.022094726563	-285.8275451660157	91.60998535156251	-1014.954956054688	-381.0310058593751	41.98133087158204	-1057.424194335938	-146.7904663085938	54.8635597229004	-1071.963134765625	-158.6118316650391	55.28432846069337	-1113.263549804688	-207.4630737304688	31.86999511718751	-1159.625	-295.2906188964844	705.5513305664064	-679.3654174804689	-233.6052246093751	683.0039672851564	-664.7098999023439	-206.9767761230469	702.1143798828126	-671.3474121093751	-212.8993835449219	600.5932006835939	-658.5289916992189	-176.921371459961	480.850799560547	-667.1201171875001	-134.9533081054688	473.6231689453126	-772.991394042969	-177.8995513916016	278.7763366699219	-682.9226684570314	-275.4140930175782	234.0011749267579	-677.6060791015626	-232.0216369628907	215.7401733398438	-678.6679687500001	-224.401840209961	163.9795532226563	-707.9548339843751	-310.9271240234376	90.42242431640626	-690.5220336914064	-275.1364135742188	98.42089843750003	-774.2063598632815	-378.2433776855469	41.04187774658204	-742.5268554687501	-145.1613922119141	50.62253570556642	-717.7988891601564	-155.1170501708985	57.92555236816408	-672.8721313476564	-212.7118225097657	31.63382530212403	-626.2632446289064	
